<svg width="47" height="43" viewBox="0 0 47 43" fill="none" xmlns="http://www.w3.org/2000/svg">
<path d="M37.9282 28.3481C35.2842 29.6677 36.4694 29.0762 33.8254 30.3958C35.0107 33.0804 36.1959 35.7651 37.3812 38.4497H27.58C34.2813 25.618 40.2987 12.7862 47 0H6.5645C3.55577 0 1.54995 3.04868 2.68962 5.82434L6.47333 15.0614C7.88652 14.3333 9.3453 13.6053 10.7585 12.8772C9.57323 10.1471 8.43356 7.37143 7.2483 4.64127H17.7789C11.8526 17.4275 5.92629 30.2138 0 43H41.3472C43.3531 43 44.6295 40.8614 43.6722 39.0868C41.7575 35.4921 39.8429 31.9429 37.9282 28.3481ZM7.9321 38.8138L23.5684 5.27831H37.9282L20.5141 38.8138H7.9321Z" fill="#ED1C24"/>
</svg>
