<svg width="72" height="81" viewBox="0 0 72 81" fill="none" xmlns="http://www.w3.org/2000/svg">
<path d="M15.5408 69.0062V72.6555C15.5408 72.7758 15.4293 72.8735 15.292 72.8735H2.11132C1.96433 72.8735 1.84964 72.7617 1.86418 72.6342C4.52617 50.0066 7.18655 27.3804 9.84854 4.75272C9.86307 4.62386 9.74839 4.5134 9.6014 4.5134H1.77695C1.63965 4.5134 1.5282 4.41569 1.5282 4.29532V0.721123C1.5282 0.600755 1.63965 0.503046 1.77695 0.503046H15.6426C15.7896 0.503046 15.9042 0.613497 15.8897 0.742361C13.3327 23.3233 10.7757 45.9042 8.21871 68.4865C8.20417 68.614 8.31724 68.7244 8.46262 68.7258C10.7402 68.7485 13.0161 68.7697 15.2937 68.7924C15.431 68.7895 15.5408 68.8859 15.5408 69.0062Z" fill="white"/>
<path d="M31.0346 0.595091C31.9376 11.4211 32.8389 22.247 33.7418 33.073C33.7741 33.4554 34.4122 33.4554 34.4461 33.0744C35.3894 22.2244 36.3311 11.3743 37.2745 0.524284C39.3 0.548358 41.3256 0.571017 43.3512 0.595091C38.9721 31.9826 36.9514 46.4239 36.9353 46.4819C36.9353 46.4848 36.9159 46.5343 36.9223 46.5797C36.9239 46.5853 36.9288 46.6193 36.9353 46.6575C36.9353 46.6604 36.9353 46.6604 36.9353 46.6604C36.9401 46.6915 36.9336 56.842 36.9223 72.6017H30.8796V46.414C28.8055 31.1287 26.7331 15.8449 24.6591 0.559688C26.7848 0.572433 28.9105 0.583762 31.0346 0.595091Z" fill="white"/>
<path d="M52.085 0.595091H58.5316C58.6495 0.595091 58.7481 0.671557 58.7642 0.773515C61.1532 17.1633 63.5406 33.5531 65.9296 49.9429C65.9668 50.1978 66.3965 50.1737 66.3948 49.916C66.327 33.4908 66.2608 17.0642 66.1929 0.638988C66.1929 0.524285 66.3011 0.430824 66.432 0.433656C67.8421 0.461978 69.2523 0.490301 70.664 0.518623C70.7916 0.521455 70.8918 0.612082 70.8918 0.723953C70.9273 24.7139 70.9628 48.7038 71 72.6923C71 72.8056 70.895 72.8976 70.7658 72.8976L64.2417 72.9019C64.1221 72.9019 64.022 72.8226 64.0091 72.7192C62.0077 56.8081 60.008 40.8955 58.0066 24.9843C57.9711 24.6955 57.4849 24.7167 57.4817 25.007C57.2717 40.9507 57.0601 56.893 56.8501 72.8367C56.8485 72.9514 56.7403 73.0421 56.611 73.0392C55.2058 73.0109 53.7988 72.9826 52.3935 72.9543C52.2675 72.9514 52.1658 72.8608 52.1658 72.7503C52.0608 48.7675 51.9574 24.7847 51.8524 0.80184C51.8508 0.688553 51.9558 0.595091 52.085 0.595091Z" fill="white"/>
<path d="M1 76.5454H1.90133V79.9157H1V76.5454Z" fill="white"/>
<path d="M6.72134 76.5454H7.61621V79.9157H6.80856L5.06729 77.8313L5.0786 78.7418V79.9172H4.18373V76.5469H4.99137L6.73265 78.6413L6.72134 77.7406V76.5454Z" fill="white"/>
<path d="M12.8126 76.5454V77.2337H11.6367V79.9157H10.7353V77.2351H9.56586V76.5469H12.8126V76.5454Z" fill="white"/>
<path d="M15.6296 79.2516H17.7489V79.9157H14.7558V76.5454H17.6891V77.2053H15.6296V77.8893H17.5793V78.5251H15.6296V79.2516Z" fill="white"/>
<path d="M21.2815 78.8041H20.7598V79.9157H19.8585V76.5454H21.7306C22.0084 76.5454 22.2523 76.5922 22.4607 76.687C22.6691 76.7819 22.8306 76.9165 22.9437 77.0892C23.0567 77.262 23.1133 77.4617 23.1133 77.6868C23.1133 77.9431 23.0373 78.164 22.8855 78.3467C22.7337 78.5294 22.5188 78.6597 22.2394 78.7361L23.3265 79.9157H22.2555L21.2815 78.8041ZM22.0682 77.3455C21.9632 77.262 21.8162 77.2209 21.6256 77.2209H20.7517V78.1697H21.6256C21.8194 78.1697 21.968 78.1286 22.0698 78.0465C22.1715 77.9644 22.2232 77.8482 22.2232 77.6981C22.2232 77.548 22.1732 77.4291 22.0682 77.3455Z" fill="white"/>
<path d="M25.2794 76.5454H26.1807V79.9157H25.2794V76.5454Z" fill="white"/>
<path d="M29.2255 79.7798C28.9121 79.6339 28.6714 79.4272 28.5002 79.161C28.3306 78.8947 28.245 78.5846 28.245 78.232C28.245 77.8794 28.3306 77.5693 28.5002 77.3031C28.6698 77.0368 28.9121 76.8301 29.2255 76.6842C29.5389 76.5384 29.9023 76.4647 30.3158 76.4647C30.7293 76.4647 31.0928 76.5384 31.4061 76.6842C31.7195 76.8301 31.9602 77.0368 32.1314 77.3031C32.301 77.5693 32.3866 77.8794 32.3866 78.232C32.3866 78.5846 32.301 78.8947 32.1314 79.161C31.9618 79.4272 31.7195 79.6339 31.4061 79.7798C31.0928 79.9256 30.7293 79.9993 30.3158 79.9993C29.9023 79.9993 29.5389 79.9256 29.2255 79.7798ZM30.928 79.1624C31.1057 79.0746 31.243 78.95 31.3399 78.79C31.4368 78.6299 31.4853 78.443 31.4853 78.232C31.4853 78.021 31.4368 77.8341 31.3399 77.6741C31.243 77.5141 31.1057 77.3894 30.928 77.3016C30.7503 77.2138 30.5468 77.1685 30.3158 77.1685C30.0848 77.1685 29.8813 77.2124 29.7068 77.3016C29.5308 77.3894 29.3951 77.5141 29.2982 77.6741C29.2013 77.8341 29.1528 78.021 29.1528 78.232C29.1528 78.443 29.2013 78.6299 29.2982 78.79C29.3951 78.95 29.5308 79.0746 29.7068 79.1624C29.8829 79.2502 30.0864 79.2955 30.3158 79.2955C30.5452 79.2955 30.7503 79.2516 30.928 79.1624Z" fill="white"/>
<path d="M35.8675 78.8041H35.3458V79.9157H34.4445V76.5454H36.3166C36.5944 76.5454 36.8383 76.5922 37.0467 76.687C37.2551 76.7819 37.4166 76.9165 37.5297 77.0892C37.6427 77.262 37.6993 77.4617 37.6993 77.6868C37.6993 77.9431 37.6234 78.164 37.4715 78.3467C37.3197 78.5294 37.1049 78.6597 36.8254 78.7361L37.9125 79.9157H36.8416L35.8675 78.8041ZM36.6558 77.3455C36.5508 77.262 36.4038 77.2209 36.2132 77.2209H35.3393V78.1697H36.2132C36.4071 78.1697 36.5557 78.1286 36.6574 78.0465C36.7592 77.9644 36.8109 77.8482 36.8109 77.6981C36.8109 77.548 36.7592 77.4291 36.6558 77.3455Z" fill="white"/>
<path d="M45.212 76.7536C45.5108 76.891 45.7418 77.0878 45.9033 77.3441C46.0665 77.599 46.1472 77.895 46.1472 78.232C46.1472 78.569 46.0665 78.865 45.9033 79.1199C45.7402 79.3748 45.5092 79.5716 45.212 79.7104C44.9132 79.8478 44.5659 79.9172 44.1717 79.9172H42.5952V76.5469H44.1717C44.5675 76.5455 44.9132 76.6149 45.212 76.7536ZM44.9519 78.9585C45.149 78.7786 45.2491 78.5365 45.2491 78.232C45.2491 78.0295 45.2039 77.8539 45.1151 77.7052C45.0262 77.5565 44.8986 77.4404 44.7355 77.3583C44.5723 77.2762 44.385 77.2351 44.1717 77.2351H43.4965V79.229H44.1717C44.4932 79.2275 44.7532 79.1383 44.9519 78.9585Z" fill="white"/>
<path d="M49.0806 79.2516H51.1998V79.9157H48.2083V76.5454H51.1417V77.2053H49.0806V77.8893H51.0302V78.5251H49.0806V79.2516Z" fill="white"/>
<path d="M53.8231 79.8676C53.5323 79.784 53.2803 79.6665 53.0687 79.5164L53.5355 78.9429C53.8764 79.1779 54.2737 79.2941 54.7276 79.2941C54.9538 79.2941 55.1347 79.2601 55.2687 79.1935C55.4028 79.1256 55.469 79.0349 55.469 78.9188C55.469 78.8098 55.406 78.7248 55.2817 78.6639C55.1573 78.603 54.9586 78.5591 54.6889 78.5336C54.1655 78.4827 53.7811 78.375 53.5388 78.2108C53.2949 78.0465 53.1737 77.8129 53.1737 77.5084C53.1737 77.3031 53.2399 77.1218 53.3708 76.9646C53.5016 76.8074 53.6874 76.6856 53.9248 76.5993C54.1623 76.5129 54.4369 76.469 54.7486 76.469C55.0151 76.469 55.2768 76.503 55.5304 76.5695C55.7856 76.6375 56.0085 76.7309 56.204 76.8541L55.7808 77.4078C55.4803 77.2252 55.1492 77.1331 54.7874 77.1331C54.5645 77.1331 54.3852 77.1657 54.2511 77.2294C54.117 77.2931 54.0508 77.3809 54.0508 77.49C54.0508 77.5962 54.109 77.6783 54.2236 77.735C54.3383 77.793 54.5322 77.8355 54.8035 77.8652C55.3237 77.9162 55.7113 78.0295 55.9682 78.2051C56.225 78.3807 56.3526 78.62 56.3526 78.9245C56.3526 79.1369 56.2848 79.3238 56.1491 79.4853C56.0134 79.6467 55.8228 79.7727 55.5773 79.8605C55.3317 79.9483 55.0507 79.9922 54.7309 79.9922C54.4175 79.9936 54.1138 79.9511 53.8231 79.8676Z" fill="white"/>
<path d="M58.3733 76.5454H59.2747V79.9157H58.3733V76.5454Z" fill="white"/>
<path d="M65.0186 77.9233V79.4258C64.8248 79.6084 64.5857 79.7486 64.3014 79.8464C64.0171 79.9441 63.7054 79.9936 63.3646 79.9936C62.9575 79.9936 62.6021 79.9214 62.2968 79.777C61.9916 79.6325 61.7541 79.4272 61.5877 79.161C61.4214 78.8947 61.3374 78.5846 61.3374 78.232C61.3374 77.8893 61.4246 77.5834 61.6007 77.3144C61.7767 77.0467 62.0222 76.8372 62.3388 76.6885C62.6554 76.5398 63.0189 76.4647 63.4292 76.4647C63.7264 76.4647 63.9945 76.5101 64.2336 76.5993C64.4726 76.6885 64.6939 76.8258 64.8958 77.0085L64.3515 77.4801C64.2304 77.3739 64.0882 77.2917 63.9267 77.2351C63.7635 77.177 63.5955 77.1487 63.4243 77.1487C63.0544 77.1487 62.7621 77.2464 62.5488 77.4404C62.334 77.6344 62.2274 77.8992 62.2274 78.232C62.2274 78.4473 62.2742 78.637 62.3695 78.7999C62.4648 78.9641 62.6005 79.0902 62.7766 79.1808C62.9527 79.27 63.1562 79.3153 63.3856 79.3153C63.7474 79.3153 64.0365 79.2332 64.253 79.0703V78.5549H63.2095V77.9247H65.0186V77.9233Z" fill="white"/>
<path d="M69.6706 76.5454H70.5655V79.9157H69.7579L68.0166 77.8313L68.0279 78.7418V79.9172H67.133V76.5469H67.9407L69.6819 78.6413L69.6706 77.7406V76.5454Z" fill="white"/>
<path d="M15.5408 69.0062V72.6555C15.5408 72.7758 15.4293 72.8735 15.292 72.8735H2.11132C1.96433 72.8735 1.84964 72.7617 1.86418 72.6342C4.52617 50.0066 7.18655 27.3804 9.84854 4.75272C9.86307 4.62386 9.74839 4.5134 9.6014 4.5134H1.77695C1.63965 4.5134 1.5282 4.41569 1.5282 4.29532V0.721123C1.5282 0.600755 1.63965 0.503046 1.77695 0.503046H15.6426C15.7896 0.503046 15.9042 0.613497 15.8897 0.742361C13.3327 23.3233 10.7757 45.9042 8.21871 68.4865C8.20417 68.614 8.31724 68.7244 8.46262 68.7258C10.7402 68.7485 13.0161 68.7697 15.2937 68.7924C15.431 68.7895 15.5408 68.8859 15.5408 69.0062Z" stroke="white" stroke-width="0.5" stroke-miterlimit="10"/>
<path d="M31.0346 0.595091C31.9376 11.4211 32.8389 22.247 33.7418 33.073C33.7741 33.4554 34.4122 33.4554 34.4461 33.0744C35.3894 22.2244 36.3311 11.3743 37.2745 0.524284C39.3 0.548358 41.3256 0.571017 43.3512 0.595091C38.9721 31.9826 36.9514 46.4239 36.9353 46.4819C36.9353 46.4848 36.9159 46.5343 36.9223 46.5797C36.9239 46.5853 36.9288 46.6193 36.9353 46.6575C36.9353 46.6604 36.9353 46.6604 36.9353 46.6604C36.9401 46.6915 36.9336 56.842 36.9223 72.6017H30.8796V46.414C28.8055 31.1287 26.7331 15.8449 24.6591 0.559688C26.7848 0.572433 28.9105 0.583762 31.0346 0.595091Z" stroke="white" stroke-width="0.5" stroke-miterlimit="10"/>
<path d="M52.085 0.595091H58.5316C58.6495 0.595091 58.7481 0.671557 58.7642 0.773515C61.1532 17.1633 63.5406 33.5531 65.9296 49.9429C65.9668 50.1978 66.3965 50.1737 66.3948 49.916C66.327 33.4908 66.2608 17.0642 66.1929 0.638988C66.1929 0.524285 66.3011 0.430824 66.432 0.433656C67.8421 0.461978 69.2523 0.490301 70.664 0.518623C70.7916 0.521455 70.8918 0.612082 70.8918 0.723953C70.9273 24.7139 70.9628 48.7038 71 72.6923C71 72.8056 70.895 72.8976 70.7658 72.8976L64.2417 72.9019C64.1221 72.9019 64.022 72.8226 64.0091 72.7192C62.0077 56.8081 60.008 40.8955 58.0066 24.9843C57.9711 24.6955 57.4849 24.7167 57.4817 25.007C57.2717 40.9507 57.0601 56.893 56.8501 72.8367C56.8485 72.9514 56.7403 73.0421 56.611 73.0392C55.2058 73.0109 53.7988 72.9826 52.3935 72.9543C52.2675 72.9514 52.1658 72.8608 52.1658 72.7503C52.0608 48.7675 51.9574 24.7847 51.8524 0.80184C51.8508 0.688553 51.9558 0.595091 52.085 0.595091Z" stroke="white" stroke-width="0.5" stroke-miterlimit="10"/>
<path d="M1 76.5454H1.90133V79.9157H1V76.5454Z" stroke="white" stroke-width="0.5" stroke-miterlimit="10"/>
<path d="M6.72134 76.5454H7.61621V79.9157H6.80856L5.06729 77.8313L5.0786 78.7418V79.9172H4.18373V76.5469H4.99137L6.73265 78.6413L6.72134 77.7406V76.5454Z" stroke="white" stroke-width="0.5" stroke-miterlimit="10"/>
<path d="M12.8126 76.5454V77.2337H11.6367V79.9157H10.7353V77.2351H9.56586V76.5469H12.8126V76.5454Z" stroke="white" stroke-width="0.5" stroke-miterlimit="10"/>
<path d="M15.6296 79.2516H17.7489V79.9157H14.7558V76.5454H17.6891V77.2053H15.6296V77.8893H17.5793V78.5251H15.6296V79.2516Z" stroke="white" stroke-width="0.5" stroke-miterlimit="10"/>
<path d="M21.2815 78.8041H20.7598V79.9157H19.8585V76.5454H21.7306C22.0084 76.5454 22.2523 76.5922 22.4607 76.687C22.6691 76.7819 22.8306 76.9165 22.9437 77.0892C23.0567 77.262 23.1133 77.4617 23.1133 77.6868C23.1133 77.9431 23.0373 78.164 22.8855 78.3467C22.7337 78.5294 22.5188 78.6597 22.2394 78.7361L23.3265 79.9157H22.2555L21.2815 78.8041ZM22.0682 77.3455C21.9632 77.262 21.8162 77.2209 21.6256 77.2209H20.7517V78.1697H21.6256C21.8194 78.1697 21.968 78.1286 22.0698 78.0465C22.1715 77.9644 22.2232 77.8482 22.2232 77.6981C22.2232 77.548 22.1732 77.4291 22.0682 77.3455Z" stroke="white" stroke-width="0.5" stroke-miterlimit="10"/>
<path d="M25.2794 76.5454H26.1807V79.9157H25.2794V76.5454Z" stroke="white" stroke-width="0.5" stroke-miterlimit="10"/>
<path d="M29.2255 79.7798C28.9121 79.6339 28.6714 79.4272 28.5002 79.161C28.3306 78.8947 28.245 78.5846 28.245 78.232C28.245 77.8794 28.3306 77.5693 28.5002 77.3031C28.6698 77.0368 28.9121 76.8301 29.2255 76.6842C29.5389 76.5384 29.9023 76.4647 30.3158 76.4647C30.7293 76.4647 31.0928 76.5384 31.4061 76.6842C31.7195 76.8301 31.9602 77.0368 32.1314 77.3031C32.301 77.5693 32.3866 77.8794 32.3866 78.232C32.3866 78.5846 32.301 78.8947 32.1314 79.161C31.9618 79.4272 31.7195 79.6339 31.4061 79.7798C31.0928 79.9256 30.7293 79.9993 30.3158 79.9993C29.9023 79.9993 29.5389 79.9256 29.2255 79.7798ZM30.928 79.1624C31.1057 79.0746 31.243 78.95 31.3399 78.79C31.4368 78.6299 31.4853 78.443 31.4853 78.232C31.4853 78.021 31.4368 77.8341 31.3399 77.6741C31.243 77.5141 31.1057 77.3894 30.928 77.3016C30.7503 77.2138 30.5468 77.1685 30.3158 77.1685C30.0848 77.1685 29.8813 77.2124 29.7068 77.3016C29.5308 77.3894 29.3951 77.5141 29.2982 77.6741C29.2013 77.8341 29.1528 78.021 29.1528 78.232C29.1528 78.443 29.2013 78.6299 29.2982 78.79C29.3951 78.95 29.5308 79.0746 29.7068 79.1624C29.8829 79.2502 30.0864 79.2955 30.3158 79.2955C30.5452 79.2955 30.7503 79.2516 30.928 79.1624Z" stroke="white" stroke-width="0.5" stroke-miterlimit="10"/>
<path d="M35.8675 78.8041H35.3458V79.9157H34.4445V76.5454H36.3166C36.5944 76.5454 36.8383 76.5922 37.0467 76.687C37.2551 76.7819 37.4166 76.9165 37.5297 77.0892C37.6427 77.262 37.6993 77.4617 37.6993 77.6868C37.6993 77.9431 37.6234 78.164 37.4715 78.3467C37.3197 78.5294 37.1049 78.6597 36.8254 78.7361L37.9125 79.9157H36.8416L35.8675 78.8041ZM36.6558 77.3455C36.5508 77.262 36.4038 77.2209 36.2132 77.2209H35.3393V78.1697H36.2132C36.4071 78.1697 36.5557 78.1286 36.6574 78.0465C36.7592 77.9644 36.8109 77.8482 36.8109 77.6981C36.8109 77.548 36.7592 77.4291 36.6558 77.3455Z" stroke="white" stroke-width="0.5" stroke-miterlimit="10"/>
<path d="M45.212 76.7536C45.5108 76.891 45.7418 77.0878 45.9033 77.3441C46.0665 77.599 46.1472 77.895 46.1472 78.232C46.1472 78.569 46.0665 78.865 45.9033 79.1199C45.7402 79.3748 45.5092 79.5716 45.212 79.7104C44.9132 79.8478 44.5659 79.9172 44.1717 79.9172H42.5952V76.5469H44.1717C44.5675 76.5455 44.9132 76.6149 45.212 76.7536ZM44.9519 78.9585C45.149 78.7786 45.2491 78.5365 45.2491 78.232C45.2491 78.0295 45.2039 77.8539 45.1151 77.7052C45.0262 77.5565 44.8986 77.4404 44.7355 77.3583C44.5723 77.2762 44.385 77.2351 44.1717 77.2351H43.4965V79.229H44.1717C44.4932 79.2275 44.7532 79.1383 44.9519 78.9585Z" stroke="white" stroke-width="0.5" stroke-miterlimit="10"/>
<path d="M49.0806 79.2516H51.1998V79.9157H48.2083V76.5454H51.1417V77.2053H49.0806V77.8893H51.0302V78.5251H49.0806V79.2516Z" stroke="white" stroke-width="0.5" stroke-miterlimit="10"/>
<path d="M53.8231 79.8676C53.5323 79.784 53.2803 79.6665 53.0687 79.5164L53.5355 78.9429C53.8764 79.1779 54.2737 79.2941 54.7276 79.2941C54.9538 79.2941 55.1347 79.2601 55.2687 79.1935C55.4028 79.1256 55.469 79.0349 55.469 78.9188C55.469 78.8098 55.406 78.7248 55.2817 78.6639C55.1573 78.603 54.9586 78.5591 54.6889 78.5336C54.1655 78.4827 53.7811 78.375 53.5388 78.2108C53.2949 78.0465 53.1737 77.8129 53.1737 77.5084C53.1737 77.3031 53.2399 77.1218 53.3708 76.9646C53.5016 76.8074 53.6874 76.6856 53.9248 76.5993C54.1623 76.5129 54.4369 76.469 54.7486 76.469C55.0151 76.469 55.2768 76.503 55.5304 76.5695C55.7856 76.6375 56.0085 76.7309 56.204 76.8541L55.7808 77.4078C55.4803 77.2252 55.1492 77.1331 54.7874 77.1331C54.5645 77.1331 54.3852 77.1657 54.2511 77.2294C54.117 77.2931 54.0508 77.3809 54.0508 77.49C54.0508 77.5962 54.109 77.6783 54.2236 77.735C54.3383 77.793 54.5322 77.8355 54.8035 77.8652C55.3237 77.9162 55.7113 78.0295 55.9682 78.2051C56.225 78.3807 56.3526 78.62 56.3526 78.9245C56.3526 79.1369 56.2848 79.3238 56.1491 79.4853C56.0134 79.6467 55.8228 79.7727 55.5773 79.8605C55.3317 79.9483 55.0507 79.9922 54.7309 79.9922C54.4175 79.9936 54.1138 79.9511 53.8231 79.8676Z" stroke="white" stroke-width="0.5" stroke-miterlimit="10"/>
<path d="M58.3733 76.5454H59.2747V79.9157H58.3733V76.5454Z" stroke="white" stroke-width="0.5" stroke-miterlimit="10"/>
<path d="M65.0186 77.9233V79.4258C64.8248 79.6084 64.5857 79.7486 64.3014 79.8464C64.0171 79.9441 63.7054 79.9936 63.3646 79.9936C62.9575 79.9936 62.6021 79.9214 62.2968 79.777C61.9916 79.6325 61.7541 79.4272 61.5877 79.161C61.4214 78.8947 61.3374 78.5846 61.3374 78.232C61.3374 77.8893 61.4246 77.5834 61.6007 77.3144C61.7767 77.0467 62.0222 76.8372 62.3388 76.6885C62.6554 76.5398 63.0189 76.4647 63.4292 76.4647C63.7264 76.4647 63.9945 76.5101 64.2336 76.5993C64.4726 76.6885 64.6939 76.8258 64.8958 77.0085L64.3515 77.4801C64.2304 77.3739 64.0882 77.2917 63.9267 77.2351C63.7635 77.177 63.5955 77.1487 63.4243 77.1487C63.0544 77.1487 62.7621 77.2464 62.5488 77.4404C62.334 77.6344 62.2274 77.8992 62.2274 78.232C62.2274 78.4473 62.2742 78.637 62.3695 78.7999C62.4648 78.9641 62.6005 79.0902 62.7766 79.1808C62.9527 79.27 63.1562 79.3153 63.3856 79.3153C63.7474 79.3153 64.0365 79.2332 64.253 79.0703V78.5549H63.2095V77.9247H65.0186V77.9233Z" stroke="white" stroke-width="0.5" stroke-miterlimit="10"/>
<path d="M69.6706 76.5454H70.5655V79.9157H69.7579L68.0166 77.8313L68.0279 78.7418V79.9172H67.133V76.5469H67.9407L69.6819 78.6413L69.6706 77.7406V76.5454Z" stroke="white" stroke-width="0.5" stroke-miterlimit="10"/>
</svg>
